<?xml version="1.0" encoding="utf-8"?>
<svg id="svg2" xmlns="http://www.w3.org/2000/svg">
  <g id="layer1" transform="matrix(11.009464, 0, 0, 10.893638, -3797.37915, -1870.155029)">
    <g style="font-style:normal;font-weight:normal;font-size:40px;line-height:125%;font-family:sans-serif;letter-spacing:0px;word-spacing:0px;fill:#000000;fill-opacity:1;stroke:none;stroke-width:1px;stroke-linecap:butt;stroke-linejoin:miter;stroke-opacity:1" id="text4140">
      <path d="m 383.94608,183.642 q 1.5075,-1.1925 3.78,-1.1925 2.2725,0 3.78,1.1925 1.5075,1.1925 1.5075,3.015 0,1.8 -1.6875,3.195 2.2725,1.44 2.2725,4.05 0,2.025 -1.62,3.3975 -1.62,1.3725 -4.2525,1.3725 -2.6325,0 -4.2525,-1.3725 -1.62,-1.3725 -1.62,-3.3975 0,-2.61 2.2725,-4.05 -1.6875,-1.395 -1.6875,-3.195 0,-1.8225 1.5075,-3.015 z m 1.575,12.0825 q 1.035,0.6525 2.205,0.6525 1.17,0 2.205,-0.6525 1.035,-0.675 1.035,-1.9125 0,-1.2375 -0.99,-1.9125 -0.99,-0.675 -2.25,-0.675 -1.26,0 -2.25,0.675 -0.99,0.675 -0.99,1.9125 0,1.2375 1.035,1.9125 z m 0.2025,-7.155 q 0.855,0.675 2.0025,0.675 1.1475,0 1.98,-0.675 0.855,-0.6975 0.855,-1.6875 0,-1.0125 -0.855,-1.6875 -0.8325,-0.675 -1.98,-0.675 -1.1475,0 -2.0025,0.675 -0.8325,0.675 -0.8325,1.6875 0,0.99 0.8325,1.6875 z" style="font-style:normal;font-variant:normal;font-weight:normal;font-stretch:normal;font-size:22.5px;font-family:Montserrat;-inkscape-font-specification:Montserrat;fill:#000000;fill-opacity:1" id="path4853"/>
    </g>
    <path style="color:#000000;font-style:normal;font-variant:normal;font-weight:normal;font-stretch:normal;font-size:medium;line-height:normal;font-family:sans-serif;text-indent:0;text-align:start;text-decoration:none;text-decoration-line:none;text-decoration-style:solid;text-decoration-color:#000000;letter-spacing:normal;word-spacing:normal;text-transform:none;direction:ltr;block-progression:tb;writing-mode:lr-tb;baseline-shift:baseline;text-anchor:start;white-space:normal;clip-rule:nonzero;display:inline;overflow:visible;visibility:visible;opacity:1;isolation:auto;mix-blend-mode:normal;color-interpolation:sRGB;color-interpolation-filters:linearRGB;solid-color:#000000;solid-opacity:1;fill:#000000;fill-opacity:1;fill-rule:nonzero;stroke:none;stroke-width:1.65568161;stroke-linecap:butt;stroke-linejoin:round;stroke-miterlimit:4;stroke-dasharray:none;stroke-dashoffset:0;stroke-opacity:1;color-rendering:auto;image-rendering:auto;shape-rendering:auto;text-rendering:auto;enable-background:accumulate" d="M 371.51562 183.86328 C 359.48859 183.86328 349.7207 193.62921 349.7207 205.65625 C 349.7207 217.68329 359.48859 227.45117 371.51562 227.45117 C 383.54267 227.45117 393.30859 217.68329 393.30859 205.65625 C 393.30859 203.13833 392.8751 200.72155 392.08789 198.4707 A 7.8028417 8.09484 0 0 1 390.56641 199.16211 C 391.26049 201.20151 391.6543 203.38035 391.6543 205.65625 C 391.6543 216.7885 382.6479 225.79687 371.51562 225.79688 C 360.38338 225.79688 351.375 216.7885 351.375 205.65625 C 351.375 194.524 360.38341 185.51758 371.51562 185.51758 C 375.42692 185.51758 379.0677 186.63827 382.15234 188.56641 A 5.8237424 4.20153 0 0 1 381.70703 186.96094 A 5.8237424 4.20153 0 0 1 381.75977 186.42969 C 378.70417 184.79589 375.21981 183.86328 371.51562 183.86328 z " id="path4144"/>
    <g style="font-style:normal;font-weight:normal;font-size:40px;line-height:125%;font-family:sans-serif;letter-spacing:0px;word-spacing:0px;fill:#000000;fill-opacity:1;stroke:none;stroke-width:1px;stroke-linecap:butt;stroke-linejoin:miter;stroke-opacity:1" id="text4136">
      <path d="m 370.5948,207.45704 q 2.84,-2.88 4.04,-4.52 1.2,-1.64 1.2,-3.32 0,-1.68 -1.28,-2.84 -1.28,-1.2 -3.24,-1.2 -3.44,0 -5.72,3.52 l -3.8,-2.2 q 1.84,-2.76 4.04,-4.16 2.24,-1.4 5.72,-1.4 3.52,0 6.16,2.24 2.64,2.2 2.64,6.04 0,2.16 -1.12,4.12 -1.12,1.96 -4.12,5.04 l -6.56,6.68 12.68,0 0,4.52 -19.12,0 0,-4 8.48,-8.52 z" style="font-style:normal;font-variant:normal;font-weight:normal;font-stretch:normal;font-family:Montserrat;-inkscape-font-specification:Montserrat" id="path4850"/>
    </g>
  </g>
</svg>