<?xml version="1.0" encoding="UTF-8" standalone="no"?>
<!-- Created with Inkscape (http://www.inkscape.org/) -->

<svg
   xmlns:dc="http://purl.org/dc/elements/1.1/"
   xmlns:cc="http://creativecommons.org/ns#"
   xmlns:rdf="http://www.w3.org/1999/02/22-rdf-syntax-ns#"
   xmlns:svg="http://www.w3.org/2000/svg"
   xmlns="http://www.w3.org/2000/svg"
   xmlns:sodipodi="http://sodipodi.sourceforge.net/DTD/sodipodi-0.dtd"
   xmlns:inkscape="http://www.inkscape.org/namespaces/inkscape"
   width="12.383313mm"
   height="12.700471mm"
   viewBox="0 0 43.877881 45.001668"
   id="svg2"
   version="1.1"
   inkscape:version="0.91 r13725"
   sodipodi:docname="logo-p.svg">
  <defs
     id="defs4" />
  <sodipodi:namedview
     id="base"
     pagecolor="#ffffff"
     bordercolor="#666666"
     borderopacity="1.0"
     inkscape:pageopacity="0.0"
     inkscape:pageshadow="2"
     inkscape:zoom="10.89726"
     inkscape:cx="61.07063"
     inkscape:cy="10.683225"
     inkscape:document-units="px"
     inkscape:current-layer="layer1"
     showgrid="false"
     inkscape:window-width="1920"
     inkscape:window-height="1036"
     inkscape:window-x="-245"
     inkscape:window-y="0"
     inkscape:window-maximized="0"
     fit-margin-top="0"
     fit-margin-left="0"
     fit-margin-right="0"
     fit-margin-bottom="0" />
  <metadata
     id="metadata7">
    <rdf:RDF>
      <cc:Work
         rdf:about="">
        <dc:format>image/svg+xml</dc:format>
        <dc:type
           rdf:resource="http://purl.org/dc/dcmitype/StillImage" />
        <dc:title></dc:title>
      </cc:Work>
    </rdf:RDF>
  </metadata>
  <g
     inkscape:label="Layer 1"
     inkscape:groupmode="layer"
     id="layer1"
     transform="translate(-349.7207,-182.4495)">
    <g
       style="font-style:normal;font-weight:normal;font-size:40px;line-height:125%;font-family:sans-serif;letter-spacing:0px;word-spacing:0px;fill:#000000;fill-opacity:1;stroke:none;stroke-width:1px;stroke-linecap:butt;stroke-linejoin:miter;stroke-opacity:1"
       id="text4140">
      <path
         d="m 383.94608,183.642 q 1.5075,-1.1925 3.78,-1.1925 2.2725,0 3.78,1.1925 1.5075,1.1925 1.5075,3.015 0,1.8 -1.6875,3.195 2.2725,1.44 2.2725,4.05 0,2.025 -1.62,3.3975 -1.62,1.3725 -4.2525,1.3725 -2.6325,0 -4.2525,-1.3725 -1.62,-1.3725 -1.62,-3.3975 0,-2.61 2.2725,-4.05 -1.6875,-1.395 -1.6875,-3.195 0,-1.8225 1.5075,-3.015 z m 1.575,12.0825 q 1.035,0.6525 2.205,0.6525 1.17,0 2.205,-0.6525 1.035,-0.675 1.035,-1.9125 0,-1.2375 -0.99,-1.9125 -0.99,-0.675 -2.25,-0.675 -1.26,0 -2.25,0.675 -0.99,0.675 -0.99,1.9125 0,1.2375 1.035,1.9125 z m 0.2025,-7.155 q 0.855,0.675 2.0025,0.675 1.1475,0 1.98,-0.675 0.855,-0.6975 0.855,-1.6875 0,-1.0125 -0.855,-1.6875 -0.8325,-0.675 -1.98,-0.675 -1.1475,0 -2.0025,0.675 -0.8325,0.675 -0.8325,1.6875 0,0.99 0.8325,1.6875 z"
         style="font-style:normal;font-variant:normal;font-weight:normal;font-stretch:normal;font-size:22.5px;font-family:Montserrat;-inkscape-font-specification:Montserrat;fill:#000000;fill-opacity:1"
         id="path4853"
         inkscape:connector-curvature="0" />
    </g>
    <path
       style="color:#000000;font-style:normal;font-variant:normal;font-weight:normal;font-stretch:normal;font-size:medium;line-height:normal;font-family:sans-serif;text-indent:0;text-align:start;text-decoration:none;text-decoration-line:none;text-decoration-style:solid;text-decoration-color:#000000;letter-spacing:normal;word-spacing:normal;text-transform:none;direction:ltr;block-progression:tb;writing-mode:lr-tb;baseline-shift:baseline;text-anchor:start;white-space:normal;clip-rule:nonzero;display:inline;overflow:visible;visibility:visible;opacity:1;isolation:auto;mix-blend-mode:normal;color-interpolation:sRGB;color-interpolation-filters:linearRGB;solid-color:#000000;solid-opacity:1;fill:#000000;fill-opacity:1;fill-rule:nonzero;stroke:none;stroke-width:1.65568161;stroke-linecap:butt;stroke-linejoin:round;stroke-miterlimit:4;stroke-dasharray:none;stroke-dashoffset:0;stroke-opacity:1;color-rendering:auto;image-rendering:auto;shape-rendering:auto;text-rendering:auto;enable-background:accumulate"
       d="m 371.51562,183.86328 c -12.02703,0 -21.79492,9.76593 -21.79492,21.79297 0,12.02704 9.76789,21.79492 21.79492,21.79492 12.02705,0 21.79297,-9.76788 21.79297,-21.79492 0,-2.51792 -0.43349,-4.9347 -1.2207,-7.18555 a 7.8028417,8.09484 0 0 1 -1.52148,0.69141 c 0.69408,2.0394 1.08789,4.21824 1.08789,6.49414 0,11.13225 -9.0064,20.14062 -20.13868,20.14063 -11.13224,0 -20.14062,-9.00838 -20.14062,-20.14063 0,-11.13225 9.00841,-20.13867 20.14062,-20.13867 3.9113,0 7.55208,1.12069 10.63672,3.04883 a 5.8237424,4.20153 0 0 1 -0.44531,-1.60547 5.8237424,4.20153 0 0 1 0.0527,-0.53125 c -3.0556,-1.6338 -6.53996,-2.56641 -10.24415,-2.56641 z"
       id="path4144"
       inkscape:connector-curvature="0" />
    <g
       style="font-style:normal;font-weight:normal;font-size:40px;line-height:125%;font-family:sans-serif;letter-spacing:0px;word-spacing:0px;fill:#000000;fill-opacity:1;stroke:none;stroke-width:1px;stroke-linecap:butt;stroke-linejoin:miter;stroke-opacity:1"
       id="text4136">
      <path
         d="m 370.5948,207.45704 q 2.84,-2.88 4.04,-4.52 1.2,-1.64 1.2,-3.32 0,-1.68 -1.28,-2.84 -1.28,-1.2 -3.24,-1.2 -3.44,0 -5.72,3.52 l -3.8,-2.2 q 1.84,-2.76 4.04,-4.16 2.24,-1.4 5.72,-1.4 3.52,0 6.16,2.24 2.64,2.2 2.64,6.04 0,2.16 -1.12,4.12 -1.12,1.96 -4.12,5.04 l -6.56,6.68 12.68,0 0,4.52 -19.12,0 0,-4 8.48,-8.52 z"
         style="font-style:normal;font-variant:normal;font-weight:normal;font-stretch:normal;font-family:Montserrat;-inkscape-font-specification:Montserrat"
         id="path4850"
         inkscape:connector-curvature="0" />
    </g>
  </g>
</svg>
